<svg xmlns="http://www.w3.org/2000/svg" xmlns:xlink="http://www.w3.org/1999/xlink" width="200" zoomAndPan="magnify" viewBox="0 0 150 60" height="80" preserveAspectRatio="xMidYMid meet" version="1.0"><defs><g/></defs><g fill="#ffffff" fill-opacity="1"><g transform="translate(4.496403, 35.036106)"><g><path d="M 1.078125 -11.6875 L 3.421875 -11.6875 L 3.421875 0 L 1.078125 0 Z M 1.078125 -11.6875 "/></g></g></g><g fill="#ffffff" fill-opacity="1"><g transform="translate(8.303241, 35.036106)"><g><path d="M 1.078125 -11.6875 L 3.171875 -11.6875 L 5.765625 -5.015625 L 5.84375 -5.015625 L 5.59375 -7.1875 L 5.59375 -11.6875 L 7.9375 -11.6875 L 7.9375 0 L 5.84375 0 L 3.25 -6.6875 L 3.171875 -6.6875 L 3.421875 -4.515625 L 3.421875 0 L 1.078125 0 Z M 1.078125 -11.6875 "/></g></g></g><g fill="#ffffff" fill-opacity="1"><g transform="translate(16.61888, 35.036106)"><g><path d="M 2.421875 -9.515625 L 0.171875 -9.515625 L 0.171875 -11.6875 L 7.015625 -11.6875 L 7.015625 -10.015625 L 6.515625 -9.515625 L 4.765625 -9.515625 L 4.765625 0 L 2.421875 0 Z M 2.421875 -9.515625 "/></g></g></g><g fill="#ffffff" fill-opacity="1"><g transform="translate(23.097593, 35.036106)"><g><path d="M 1.078125 -11.6875 L 7.015625 -11.6875 L 7.015625 -10.015625 L 6.515625 -9.515625 L 3.421875 -9.515625 L 3.421875 -7.015625 L 5.84375 -7.015625 L 5.84375 -4.84375 L 3.421875 -4.84375 L 3.421875 -2.171875 L 7.015625 -2.171875 L 7.015625 0 L 1.078125 0 Z M 1.078125 -11.6875 "/></g></g></g><g fill="#ffffff" fill-opacity="1"><g transform="translate(29.826795, 35.036106)"><g><path d="M 1.078125 -11.6875 L 3.421875 -11.6875 L 3.421875 -2.171875 L 6.9375 -2.171875 L 6.9375 0 L 1.078125 0 Z M 1.078125 -11.6875 "/></g></g></g><g fill="#ffffff" fill-opacity="1"><g transform="translate(36.222011, 35.036106)"><g><path d="M 1.078125 -11.6875 L 3.421875 -11.6875 L 3.421875 0 L 1.078125 0 Z M 1.078125 -11.6875 "/></g></g></g><g fill="#ffffff" fill-opacity="1"><g transform="translate(40.02885, 35.036106)"><g><path d="M 3.34375 0 C 2.988281 0 2.660156 -0.0546875 2.359375 -0.171875 C 2.066406 -0.285156 1.8125 -0.453125 1.59375 -0.671875 C 1.375 -0.890625 1.207031 -1.144531 1.09375 -1.4375 C 0.976562 -1.738281 0.921875 -2.066406 0.921875 -2.421875 L 0.921875 -9.265625 C 0.921875 -9.628906 0.976562 -9.957031 1.09375 -10.25 C 1.207031 -10.539062 1.375 -10.796875 1.59375 -11.015625 C 1.8125 -11.234375 2.066406 -11.398438 2.359375 -11.515625 C 2.660156 -11.628906 2.988281 -11.6875 3.34375 -11.6875 L 7.09375 -11.6875 L 7.09375 -10.015625 L 6.59375 -9.515625 L 4.09375 -9.515625 C 3.53125 -9.515625 3.25 -9.238281 3.25 -8.6875 L 3.25 -3 C 3.25 -2.445312 3.53125 -2.171875 4.09375 -2.171875 L 5.34375 -2.171875 L 5.34375 -6.515625 L 7.59375 -6.515625 L 7.59375 0 Z M 3.34375 0 "/></g></g></g><g fill="#ffffff" fill-opacity="1"><g transform="translate(47.760018, 35.036106)"><g><path d="M 1.078125 -11.6875 L 7.015625 -11.6875 L 7.015625 -10.015625 L 6.515625 -9.515625 L 3.421875 -9.515625 L 3.421875 -7.015625 L 5.84375 -7.015625 L 5.84375 -4.84375 L 3.421875 -4.84375 L 3.421875 -2.171875 L 7.015625 -2.171875 L 7.015625 0 L 1.078125 0 Z M 3 -15.53125 L 5.15625 -15.53125 L 6.734375 -12.859375 L 4.75 -12.859375 L 4.078125 -14.359375 L 3.40625 -12.859375 L 1.421875 -12.859375 Z M 3 -15.53125 "/></g></g></g><g fill="#ffffff" fill-opacity="1"><g transform="translate(54.489218, 35.036106)"><g><path d="M 1.078125 -11.6875 L 3.171875 -11.6875 L 5.765625 -5.015625 L 5.84375 -5.015625 L 5.59375 -7.1875 L 5.59375 -11.6875 L 7.9375 -11.6875 L 7.9375 0 L 5.84375 0 L 3.25 -6.6875 L 3.171875 -6.6875 L 3.421875 -4.515625 L 3.421875 0 L 1.078125 0 Z M 1.078125 -11.6875 "/></g></g></g><g fill="#ffffff" fill-opacity="1"><g transform="translate(62.804855, 35.036106)"><g><path d="M 3.34375 0 C 2.988281 0 2.660156 -0.0546875 2.359375 -0.171875 C 2.066406 -0.285156 1.8125 -0.453125 1.59375 -0.671875 C 1.375 -0.890625 1.207031 -1.144531 1.09375 -1.4375 C 0.976562 -1.738281 0.921875 -2.066406 0.921875 -2.421875 L 0.921875 -9.265625 C 0.921875 -9.628906 0.976562 -9.957031 1.09375 -10.25 C 1.207031 -10.539062 1.375 -10.796875 1.59375 -11.015625 C 1.8125 -11.234375 2.066406 -11.398438 2.359375 -11.515625 C 2.660156 -11.628906 2.988281 -11.6875 3.34375 -11.6875 L 7.1875 -11.6875 L 7.1875 -10.015625 L 6.6875 -9.515625 L 4.09375 -9.515625 C 3.53125 -9.515625 3.25 -9.238281 3.25 -8.6875 L 3.25 -3 C 3.25 -2.445312 3.53125 -2.171875 4.09375 -2.171875 L 7.1875 -2.171875 L 7.1875 0 Z M 3.34375 0 "/></g></g></g><g fill="#ffffff" fill-opacity="1"><g transform="translate(69.784544, 35.036106)"><g><path d="M 1.078125 -11.6875 L 3.421875 -11.6875 L 3.421875 0 L 1.078125 0 Z M 1.078125 -11.6875 "/></g></g></g><g fill="#ffffff" fill-opacity="1"><g transform="translate(73.591381, 35.036106)"><g><path d="M 0.171875 -1 L 2.421875 -11.6875 L 5.59375 -11.6875 L 7.84375 -1 L 7.84375 0 L 5.59375 0 L 5.171875 -2.5 L 2.84375 -2.5 L 2.421875 0 L 0.171875 0 Z M 4.84375 -4.515625 L 4.09375 -9.1875 L 3.921875 -9.1875 L 3.171875 -4.515625 Z M 4.84375 -4.515625 "/></g></g></g><g fill="#ffffff" fill-opacity="1"><g transform="translate(80.905065, 35.036106)"><g/></g></g><g fill="#ffffff" fill-opacity="1"><g transform="translate(83.876941, 35.036106)"><g><path d="M 0.171875 -1 L 2.421875 -11.6875 L 5.59375 -11.6875 L 7.84375 -1 L 7.84375 0 L 5.59375 0 L 5.171875 -2.5 L 2.84375 -2.5 L 2.421875 0 L 0.171875 0 Z M 4.84375 -4.515625 L 4.09375 -9.1875 L 3.921875 -9.1875 L 3.171875 -4.515625 Z M 4.84375 -4.515625 "/></g></g></g><g fill="#ffffff" fill-opacity="1"><g transform="translate(91.190625, 35.036106)"><g><path d="M 1.078125 -11.6875 L 5.34375 -11.6875 C 5.695312 -11.6875 6.019531 -11.628906 6.3125 -11.515625 C 6.613281 -11.398438 6.875 -11.234375 7.09375 -11.015625 C 7.3125 -10.796875 7.476562 -10.539062 7.59375 -10.25 C 7.707031 -9.957031 7.765625 -9.628906 7.765625 -9.265625 L 7.765625 -6.59375 C 7.765625 -6.175781 7.691406 -5.832031 7.546875 -5.5625 C 7.410156 -5.300781 7.257812 -5.097656 7.09375 -4.953125 C 6.894531 -4.773438 6.675781 -4.65625 6.4375 -4.59375 L 8.015625 -1.078125 L 8.015625 0 L 5.921875 0 L 4.34375 -4.171875 L 3.421875 -4.171875 L 3.421875 0 L 1.078125 0 Z M 4.59375 -6.34375 C 5.144531 -6.34375 5.421875 -6.625 5.421875 -7.1875 L 5.421875 -8.6875 C 5.421875 -9.238281 5.144531 -9.515625 4.59375 -9.515625 L 3.421875 -9.515625 L 3.421875 -6.34375 Z M 4.59375 -6.34375 "/></g></g></g><g fill="#ffffff" fill-opacity="1"><g transform="translate(99.088782, 35.036106)"><g><path d="M 2.421875 -9.515625 L 0.171875 -9.515625 L 0.171875 -11.6875 L 7.015625 -11.6875 L 7.015625 -10.015625 L 6.515625 -9.515625 L 4.765625 -9.515625 L 4.765625 0 L 2.421875 0 Z M 2.421875 -9.515625 "/></g></g></g><g fill="#ffffff" fill-opacity="1"><g transform="translate(105.567494, 35.036106)"><g><path d="M 1.078125 -11.6875 L 3.421875 -11.6875 L 3.421875 0 L 1.078125 0 Z M 1.078125 -11.6875 "/></g></g></g><g fill="#ffffff" fill-opacity="1"><g transform="translate(109.374336, 35.036106)"><g><path d="M 1.078125 -11.6875 L 7.015625 -11.6875 L 7.015625 -10.015625 L 6.515625 -9.515625 L 3.421875 -9.515625 L 3.421875 -6.515625 L 5.765625 -6.515625 L 5.765625 -4.34375 L 3.421875 -4.34375 L 3.421875 0 L 1.078125 0 Z M 1.078125 -11.6875 "/></g></g></g><g fill="#ffffff" fill-opacity="1"><g transform="translate(115.93655, 35.036106)"><g><path d="M 1.078125 -11.6875 L 3.421875 -11.6875 L 3.421875 0 L 1.078125 0 Z M 1.078125 -11.6875 "/></g></g></g><g fill="#ffffff" fill-opacity="1"><g transform="translate(119.743392, 35.036106)"><g><path d="M 3.34375 0 C 2.988281 0 2.660156 -0.0546875 2.359375 -0.171875 C 2.066406 -0.285156 1.8125 -0.453125 1.59375 -0.671875 C 1.375 -0.890625 1.207031 -1.144531 1.09375 -1.4375 C 0.976562 -1.738281 0.921875 -2.066406 0.921875 -2.421875 L 0.921875 -9.265625 C 0.921875 -9.628906 0.976562 -9.957031 1.09375 -10.25 C 1.207031 -10.539062 1.375 -10.796875 1.59375 -11.015625 C 1.8125 -11.234375 2.066406 -11.398438 2.359375 -11.515625 C 2.660156 -11.628906 2.988281 -11.6875 3.34375 -11.6875 L 7.1875 -11.6875 L 7.1875 -10.015625 L 6.6875 -9.515625 L 4.09375 -9.515625 C 3.53125 -9.515625 3.25 -9.238281 3.25 -8.6875 L 3.25 -3 C 3.25 -2.445312 3.53125 -2.171875 4.09375 -2.171875 L 7.1875 -2.171875 L 7.1875 0 Z M 3.34375 0 "/></g></g></g><g fill="#ffffff" fill-opacity="1"><g transform="translate(126.723087, 35.036106)"><g><path d="M 1.078125 -11.6875 L 3.421875 -11.6875 L 3.421875 0 L 1.078125 0 Z M 1.078125 -11.6875 "/></g></g></g><g fill="#ffffff" fill-opacity="1"><g transform="translate(130.529929, 35.036106)"><g><path d="M 0.171875 -1 L 2.421875 -11.6875 L 5.59375 -11.6875 L 7.84375 -1 L 7.84375 0 L 5.59375 0 L 5.171875 -2.5 L 2.84375 -2.5 L 2.421875 0 L 0.171875 0 Z M 4.84375 -4.515625 L 4.09375 -9.1875 L 3.921875 -9.1875 L 3.171875 -4.515625 Z M 4.84375 -4.515625 "/></g></g></g><g fill="#ffffff" fill-opacity="1"><g transform="translate(137.843619, 35.036106)"><g><path d="M 1.078125 -11.6875 L 3.421875 -11.6875 L 3.421875 -2.171875 L 6.9375 -2.171875 L 6.9375 0 L 1.078125 0 Z M 1.078125 -11.6875 "/></g></g></g></svg>