<svg xmlns="http://www.w3.org/2000/svg" xmlns:xlink="http://www.w3.org/1999/xlink" width="50" zoomAndPan="magnify" viewBox="0 0 37.5 37.499999" height="50" preserveAspectRatio="xMidYMid meet" version="1.0"><defs><clipPath id="30189b74ea"><path d="M 26 3.699219 L 28 3.699219 L 28 10 L 26 10 Z M 26 3.699219 " clip-rule="nonzero"/></clipPath><clipPath id="d38f4df7bd"><path d="M 23 3.699219 L 24 3.699219 L 24 10 L 23 10 Z M 23 3.699219 " clip-rule="nonzero"/></clipPath><clipPath id="fe2d1aa780"><path d="M 19 3.699219 L 21 3.699219 L 21 10 L 19 10 Z M 19 3.699219 " clip-rule="nonzero"/></clipPath><clipPath id="4a366cd834"><path d="M 16 3.699219 L 18 3.699219 L 18 10 L 16 10 Z M 16 3.699219 " clip-rule="nonzero"/></clipPath><clipPath id="817f9225af"><path d="M 13 3.699219 L 14 3.699219 L 14 10 L 13 10 Z M 13 3.699219 " clip-rule="nonzero"/></clipPath><clipPath id="a248845bb3"><path d="M 10 3.699219 L 11 3.699219 L 11 10 L 10 10 Z M 10 3.699219 " clip-rule="nonzero"/></clipPath><clipPath id="dc007971c8"><path d="M 26 29 L 28 29 L 28 35.527344 L 26 35.527344 Z M 26 29 " clip-rule="nonzero"/></clipPath><clipPath id="d463ec0047"><path d="M 23 29 L 24 29 L 24 35.527344 L 23 35.527344 Z M 23 29 " clip-rule="nonzero"/></clipPath><clipPath id="6e85b98293"><path d="M 19 29 L 21 29 L 21 35.527344 L 19 35.527344 Z M 19 29 " clip-rule="nonzero"/></clipPath><clipPath id="00f5672ff0"><path d="M 16 29 L 18 29 L 18 35.527344 L 16 35.527344 Z M 16 29 " clip-rule="nonzero"/></clipPath><clipPath id="ce1b5f90f8"><path d="M 13 29 L 14 29 L 14 35.527344 L 13 35.527344 Z M 13 29 " clip-rule="nonzero"/></clipPath><clipPath id="e05ada82f2"><path d="M 10 29 L 11 29 L 11 35.527344 L 10 35.527344 Z M 10 29 " clip-rule="nonzero"/></clipPath><clipPath id="ef91f96172"><path d="M 2.617188 11 L 9 11 L 9 12 L 2.617188 12 Z M 2.617188 11 " clip-rule="nonzero"/></clipPath><clipPath id="4f9b8c7f70"><path d="M 2.617188 14 L 9 14 L 9 16 L 2.617188 16 Z M 2.617188 14 " clip-rule="nonzero"/></clipPath><clipPath id="b772317bf3"><path d="M 2.617188 17 L 9 17 L 9 19 L 2.617188 19 Z M 2.617188 17 " clip-rule="nonzero"/></clipPath><clipPath id="8e48ad06dc"><path d="M 2.617188 20 L 9 20 L 9 22 L 2.617188 22 Z M 2.617188 20 " clip-rule="nonzero"/></clipPath><clipPath id="10c9ca53d5"><path d="M 2.617188 24 L 9 24 L 9 25 L 2.617188 25 Z M 2.617188 24 " clip-rule="nonzero"/></clipPath><clipPath id="9757320520"><path d="M 2.617188 27 L 9 27 L 9 29 L 2.617188 29 Z M 2.617188 27 " clip-rule="nonzero"/></clipPath><clipPath id="abd894e448"><path d="M 28 11 L 34.445312 11 L 34.445312 12 L 28 12 Z M 28 11 " clip-rule="nonzero"/></clipPath><clipPath id="54c7d20f68"><path d="M 28 14 L 34.445312 14 L 34.445312 16 L 28 16 Z M 28 14 " clip-rule="nonzero"/></clipPath><clipPath id="27e31a75f7"><path d="M 28 17 L 34.445312 17 L 34.445312 19 L 28 19 Z M 28 17 " clip-rule="nonzero"/></clipPath><clipPath id="2f439cb051"><path d="M 28 20 L 34.445312 20 L 34.445312 22 L 28 22 Z M 28 20 " clip-rule="nonzero"/></clipPath><clipPath id="4a6abd60f9"><path d="M 28 24 L 34.445312 24 L 34.445312 25 L 28 25 Z M 28 24 " clip-rule="nonzero"/></clipPath><clipPath id="acef03345d"><path d="M 28 27 L 34.445312 27 L 34.445312 29 L 28 29 Z M 28 27 " clip-rule="nonzero"/></clipPath></defs><path fill="#37404c" d="M 26.921875 14.113281 L 26.921875 25.148438 C 26.921875 25.507812 26.628906 25.800781 26.273438 25.800781 L 25.371094 25.800781 C 25.011719 25.800781 24.71875 26.089844 24.71875 26.449219 L 24.71875 27.351562 C 24.71875 27.707031 24.429688 28 24.070312 28 L 13.035156 28 C 12.675781 28 12.386719 27.707031 12.386719 27.351562 L 12.386719 26.449219 C 12.386719 26.089844 12.097656 25.800781 11.738281 25.800781 L 10.835938 25.800781 C 10.476562 25.800781 10.1875 25.507812 10.1875 25.148438 L 10.1875 14.113281 C 10.1875 13.757812 10.476562 13.464844 10.835938 13.464844 L 11.738281 13.464844 C 12.097656 13.464844 12.386719 13.175781 12.386719 12.816406 L 12.386719 11.914062 C 12.386719 11.554688 12.675781 11.265625 13.035156 11.265625 L 24.070312 11.265625 C 24.429688 11.265625 24.71875 11.554688 24.71875 11.914062 L 24.71875 12.816406 C 24.71875 13.175781 25.011719 13.464844 25.371094 13.464844 L 26.273438 13.464844 C 26.628906 13.464844 26.921875 13.757812 26.921875 14.113281 " fill-opacity="1" fill-rule="nonzero"/><path fill="#3f76c3" d="M 26.921875 25.148438 L 26.921875 14.113281 C 26.921875 13.757812 26.628906 13.464844 26.273438 13.464844 L 25.371094 13.464844 C 25.011719 13.464844 24.71875 13.175781 24.71875 12.816406 L 24.71875 11.914062 C 24.71875 11.554688 24.429688 11.265625 24.070312 11.265625 L 13.035156 11.265625 C 12.675781 11.265625 12.386719 11.554688 12.386719 11.914062 L 12.386719 12.816406 C 12.386719 13.175781 12.097656 13.464844 11.738281 13.464844 L 10.835938 13.464844 C 10.476562 13.464844 10.1875 13.757812 10.1875 14.113281 L 10.1875 25.148438 C 10.1875 25.507812 10.476562 25.800781 10.835938 25.800781 L 11.738281 25.800781 C 12.097656 25.800781 12.386719 26.089844 12.386719 26.449219 L 12.386719 27.351562 C 12.386719 27.707031 12.675781 28 13.035156 28 L 24.070312 28 C 24.429688 28 24.71875 27.707031 24.71875 27.351562 L 24.71875 26.449219 C 24.71875 26.089844 25.011719 25.800781 25.371094 25.800781 L 26.273438 25.800781 C 26.628906 25.800781 26.921875 25.507812 26.921875 25.148438 Z M 10.394531 31.480469 L 7.328125 31.480469 C 6.984375 31.480469 6.707031 31.203125 6.707031 30.855469 L 6.707031 8.410156 C 6.707031 8.0625 6.984375 7.785156 7.328125 7.785156 L 29.777344 7.785156 C 30.125 7.785156 30.402344 8.0625 30.402344 8.410156 L 30.402344 30.855469 C 30.402344 31.203125 30.125 31.480469 29.777344 31.480469 L 10.394531 31.480469 " fill-opacity="1" fill-rule="nonzero"/><path fill="#3f76c3" d="M 29.777344 7.785156 L 18.554688 7.785156 L 18.554688 11.265625 L 24.070312 11.265625 C 24.429688 11.265625 24.71875 11.554688 24.71875 11.914062 L 24.71875 12.816406 C 24.71875 13.175781 25.011719 13.464844 25.371094 13.464844 L 26.273438 13.464844 C 26.628906 13.464844 26.921875 13.757812 26.921875 14.113281 L 26.921875 25.148438 C 26.921875 25.507812 26.628906 25.800781 26.273438 25.800781 L 25.371094 25.800781 C 25.011719 25.800781 24.71875 26.089844 24.71875 26.449219 L 24.71875 27.351562 C 24.71875 27.707031 24.429688 28 24.070312 28 L 18.554688 28 L 18.554688 31.480469 L 29.777344 31.480469 C 30.125 31.480469 30.402344 31.203125 30.402344 30.855469 L 30.402344 8.410156 C 30.402344 8.0625 30.125 7.785156 29.777344 7.785156 " fill-opacity="1" fill-rule="nonzero"/><path fill="#37404c" d="M 24.070312 28 C 24.429688 28 24.71875 27.707031 24.71875 27.351562 L 24.71875 26.449219 C 24.71875 26.089844 25.011719 25.800781 25.371094 25.800781 L 26.273438 25.800781 C 26.628906 25.800781 26.921875 25.507812 26.921875 25.148438 L 26.921875 14.113281 C 26.921875 13.757812 26.628906 13.464844 26.273438 13.464844 L 25.371094 13.464844 C 25.011719 13.464844 24.71875 13.175781 24.71875 12.816406 L 24.71875 11.914062 C 24.71875 11.554688 24.429688 11.265625 24.070312 11.265625 L 18.554688 11.265625 L 18.554688 28 L 24.070312 28 " fill-opacity="1" fill-rule="nonzero"/><g clip-path="url(#30189b74ea)"><path fill="#37404c" d="M 26.714844 9.820312 C 26.542969 9.820312 26.402344 9.679688 26.402344 9.507812 L 26.402344 4.027344 C 26.402344 3.851562 26.542969 3.714844 26.714844 3.714844 C 26.886719 3.714844 27.027344 3.851562 27.027344 4.027344 L 27.027344 9.507812 C 27.027344 9.679688 26.886719 9.820312 26.714844 9.820312 " fill-opacity="1" fill-rule="nonzero"/></g><g clip-path="url(#d38f4df7bd)"><path fill="#37404c" d="M 23.449219 9.820312 C 23.277344 9.820312 23.136719 9.679688 23.136719 9.507812 L 23.136719 4.027344 C 23.136719 3.851562 23.277344 3.714844 23.449219 3.714844 C 23.621094 3.714844 23.761719 3.851562 23.761719 4.027344 L 23.761719 9.507812 C 23.761719 9.679688 23.621094 9.820312 23.449219 9.820312 " fill-opacity="1" fill-rule="nonzero"/></g><g clip-path="url(#fe2d1aa780)"><path fill="#37404c" d="M 20.183594 9.820312 C 20.011719 9.820312 19.871094 9.679688 19.871094 9.507812 L 19.871094 4.027344 C 19.871094 3.851562 20.011719 3.714844 20.183594 3.714844 C 20.355469 3.714844 20.496094 3.851562 20.496094 4.027344 L 20.496094 9.507812 C 20.496094 9.679688 20.355469 9.820312 20.183594 9.820312 " fill-opacity="1" fill-rule="nonzero"/></g><g clip-path="url(#4a366cd834)"><path fill="#37404c" d="M 16.921875 9.820312 C 16.75 9.820312 16.609375 9.679688 16.609375 9.507812 L 16.609375 4.027344 C 16.609375 3.851562 16.75 3.714844 16.921875 3.714844 C 17.09375 3.714844 17.234375 3.851562 17.234375 4.027344 L 17.234375 9.507812 C 17.234375 9.679688 17.09375 9.820312 16.921875 9.820312 " fill-opacity="1" fill-rule="nonzero"/></g><g clip-path="url(#817f9225af)"><path fill="#37404c" d="M 13.65625 9.820312 C 13.484375 9.820312 13.347656 9.679688 13.347656 9.507812 L 13.347656 4.027344 C 13.347656 3.851562 13.484375 3.714844 13.65625 3.714844 C 13.832031 3.714844 13.96875 3.851562 13.96875 4.027344 L 13.96875 9.507812 C 13.96875 9.679688 13.832031 9.820312 13.65625 9.820312 " fill-opacity="1" fill-rule="nonzero"/></g><g clip-path="url(#a248845bb3)"><path fill="#37404c" d="M 10.394531 9.820312 C 10.21875 9.820312 10.078125 9.679688 10.078125 9.507812 L 10.078125 4.027344 C 10.078125 3.851562 10.21875 3.714844 10.394531 3.714844 C 10.5625 3.714844 10.703125 3.851562 10.703125 4.027344 L 10.703125 9.507812 C 10.703125 9.679688 10.5625 9.820312 10.394531 9.820312 " fill-opacity="1" fill-rule="nonzero"/></g><g clip-path="url(#dc007971c8)"><path fill="#37404c" d="M 26.714844 35.554688 C 26.542969 35.554688 26.402344 35.414062 26.402344 35.242188 L 26.402344 29.757812 C 26.402344 29.585938 26.542969 29.445312 26.714844 29.445312 C 26.886719 29.445312 27.027344 29.585938 27.027344 29.757812 L 27.027344 35.242188 C 27.027344 35.414062 26.886719 35.554688 26.714844 35.554688 " fill-opacity="1" fill-rule="nonzero"/></g><g clip-path="url(#d463ec0047)"><path fill="#37404c" d="M 23.449219 35.554688 C 23.277344 35.554688 23.136719 35.414062 23.136719 35.242188 L 23.136719 29.757812 C 23.136719 29.585938 23.277344 29.445312 23.449219 29.445312 C 23.621094 29.445312 23.761719 29.585938 23.761719 29.757812 L 23.761719 35.242188 C 23.761719 35.414062 23.621094 35.554688 23.449219 35.554688 " fill-opacity="1" fill-rule="nonzero"/></g><g clip-path="url(#6e85b98293)"><path fill="#37404c" d="M 20.183594 35.554688 C 20.011719 35.554688 19.871094 35.414062 19.871094 35.242188 L 19.871094 29.757812 C 19.871094 29.585938 20.011719 29.445312 20.183594 29.445312 C 20.355469 29.445312 20.496094 29.585938 20.496094 29.757812 L 20.496094 35.242188 C 20.496094 35.414062 20.355469 35.554688 20.183594 35.554688 " fill-opacity="1" fill-rule="nonzero"/></g><g clip-path="url(#00f5672ff0)"><path fill="#37404c" d="M 16.921875 35.554688 C 16.75 35.554688 16.609375 35.414062 16.609375 35.242188 L 16.609375 29.757812 C 16.609375 29.585938 16.75 29.445312 16.921875 29.445312 C 17.09375 29.445312 17.234375 29.585938 17.234375 29.757812 L 17.234375 35.242188 C 17.234375 35.414062 17.09375 35.554688 16.921875 35.554688 " fill-opacity="1" fill-rule="nonzero"/></g><g clip-path="url(#ce1b5f90f8)"><path fill="#37404c" d="M 13.65625 35.554688 C 13.484375 35.554688 13.347656 35.414062 13.347656 35.242188 L 13.347656 29.757812 C 13.347656 29.585938 13.484375 29.445312 13.65625 29.445312 C 13.832031 29.445312 13.96875 29.585938 13.96875 29.757812 L 13.96875 35.242188 C 13.96875 35.414062 13.832031 35.554688 13.65625 35.554688 " fill-opacity="1" fill-rule="nonzero"/></g><g clip-path="url(#e05ada82f2)"><path fill="#37404c" d="M 10.394531 35.554688 C 10.21875 35.554688 10.078125 35.414062 10.078125 35.242188 L 10.078125 29.757812 C 10.078125 29.585938 10.21875 29.445312 10.394531 29.445312 C 10.5625 29.445312 10.703125 29.585938 10.703125 29.757812 L 10.703125 35.242188 C 10.703125 35.414062 10.5625 35.554688 10.394531 35.554688 " fill-opacity="1" fill-rule="nonzero"/></g><g clip-path="url(#ef91f96172)"><path fill="#37404c" d="M 8.429688 11.78125 L 2.945312 11.78125 C 2.773438 11.78125 2.632812 11.644531 2.632812 11.472656 C 2.632812 11.296875 2.773438 11.160156 2.945312 11.160156 L 8.429688 11.160156 C 8.601562 11.160156 8.742188 11.296875 8.742188 11.472656 C 8.742188 11.644531 8.601562 11.78125 8.429688 11.78125 " fill-opacity="1" fill-rule="nonzero"/></g><g clip-path="url(#4f9b8c7f70)"><path fill="#37404c" d="M 8.429688 15.046875 L 2.945312 15.046875 C 2.773438 15.046875 2.632812 14.910156 2.632812 14.734375 C 2.632812 14.5625 2.773438 14.425781 2.945312 14.425781 L 8.429688 14.425781 C 8.601562 14.425781 8.742188 14.5625 8.742188 14.734375 C 8.742188 14.910156 8.601562 15.046875 8.429688 15.046875 " fill-opacity="1" fill-rule="nonzero"/></g><g clip-path="url(#b772317bf3)"><path fill="#37404c" d="M 8.429688 18.3125 L 2.945312 18.3125 C 2.773438 18.3125 2.632812 18.171875 2.632812 18 C 2.632812 17.828125 2.773438 17.6875 2.945312 17.6875 L 8.429688 17.6875 C 8.601562 17.6875 8.742188 17.828125 8.742188 18 C 8.742188 18.171875 8.601562 18.3125 8.429688 18.3125 " fill-opacity="1" fill-rule="nonzero"/></g><g clip-path="url(#8e48ad06dc)"><path fill="#37404c" d="M 8.429688 21.574219 L 2.945312 21.574219 C 2.773438 21.574219 2.632812 21.4375 2.632812 21.261719 C 2.632812 21.089844 2.773438 20.953125 2.945312 20.953125 L 8.429688 20.953125 C 8.601562 20.953125 8.742188 21.089844 8.742188 21.261719 C 8.742188 21.4375 8.601562 21.574219 8.429688 21.574219 " fill-opacity="1" fill-rule="nonzero"/></g><g clip-path="url(#10c9ca53d5)"><path fill="#37404c" d="M 8.429688 24.839844 L 2.945312 24.839844 C 2.773438 24.839844 2.632812 24.703125 2.632812 24.527344 C 2.632812 24.355469 2.773438 24.214844 2.945312 24.214844 L 8.429688 24.214844 C 8.601562 24.214844 8.742188 24.355469 8.742188 24.527344 C 8.742188 24.703125 8.601562 24.839844 8.429688 24.839844 " fill-opacity="1" fill-rule="nonzero"/></g><g clip-path="url(#9757320520)"><path fill="#37404c" d="M 8.429688 28.105469 L 2.945312 28.105469 C 2.773438 28.105469 2.632812 27.964844 2.632812 27.792969 C 2.632812 27.621094 2.773438 27.480469 2.945312 27.480469 L 8.429688 27.480469 C 8.601562 27.480469 8.742188 27.621094 8.742188 27.792969 C 8.742188 27.964844 8.601562 28.105469 8.429688 28.105469 " fill-opacity="1" fill-rule="nonzero"/></g><g clip-path="url(#abd894e448)"><path fill="#37404c" d="M 34.160156 11.78125 L 28.679688 11.78125 C 28.503906 11.78125 28.367188 11.644531 28.367188 11.472656 C 28.367188 11.296875 28.503906 11.160156 28.679688 11.160156 L 34.160156 11.160156 C 34.332031 11.160156 34.472656 11.296875 34.472656 11.472656 C 34.472656 11.644531 34.332031 11.78125 34.160156 11.78125 " fill-opacity="1" fill-rule="nonzero"/></g><g clip-path="url(#54c7d20f68)"><path fill="#37404c" d="M 34.160156 15.046875 L 28.679688 15.046875 C 28.503906 15.046875 28.367188 14.910156 28.367188 14.734375 C 28.367188 14.5625 28.503906 14.425781 28.679688 14.425781 L 34.160156 14.425781 C 34.332031 14.425781 34.472656 14.5625 34.472656 14.734375 C 34.472656 14.910156 34.332031 15.046875 34.160156 15.046875 " fill-opacity="1" fill-rule="nonzero"/></g><g clip-path="url(#27e31a75f7)"><path fill="#37404c" d="M 34.160156 18.3125 L 28.679688 18.3125 C 28.503906 18.3125 28.367188 18.171875 28.367188 18 C 28.367188 17.828125 28.503906 17.6875 28.679688 17.6875 L 34.160156 17.6875 C 34.332031 17.6875 34.472656 17.828125 34.472656 18 C 34.472656 18.171875 34.332031 18.3125 34.160156 18.3125 " fill-opacity="1" fill-rule="nonzero"/></g><g clip-path="url(#2f439cb051)"><path fill="#37404c" d="M 34.160156 21.574219 L 28.679688 21.574219 C 28.503906 21.574219 28.367188 21.4375 28.367188 21.261719 C 28.367188 21.089844 28.503906 20.953125 28.679688 20.953125 L 34.160156 20.953125 C 34.332031 20.953125 34.472656 21.089844 34.472656 21.261719 C 34.472656 21.4375 34.332031 21.574219 34.160156 21.574219 " fill-opacity="1" fill-rule="nonzero"/></g><g clip-path="url(#4a6abd60f9)"><path fill="#37404c" d="M 34.160156 24.839844 L 28.679688 24.839844 C 28.503906 24.839844 28.367188 24.703125 28.367188 24.527344 C 28.367188 24.355469 28.503906 24.214844 28.679688 24.214844 L 34.160156 24.214844 C 34.332031 24.214844 34.472656 24.355469 34.472656 24.527344 C 34.472656 24.703125 34.332031 24.839844 34.160156 24.839844 " fill-opacity="1" fill-rule="nonzero"/></g><g clip-path="url(#acef03345d)"><path fill="#37404c" d="M 34.160156 28.105469 L 28.679688 28.105469 C 28.503906 28.105469 28.367188 27.964844 28.367188 27.792969 C 28.367188 27.621094 28.503906 27.480469 28.679688 27.480469 L 34.160156 27.480469 C 34.332031 27.480469 34.472656 27.621094 34.472656 27.792969 C 34.472656 27.964844 34.332031 28.105469 34.160156 28.105469 " fill-opacity="1" fill-rule="nonzero"/></g><path fill="#ffffff" d="M 13.25 15.996094 C 13.074219 15.996094 12.9375 15.855469 12.9375 15.683594 L 12.9375 14.742188 C 12.9375 14.570312 13.074219 14.429688 13.25 14.429688 C 13.421875 14.429688 13.558594 14.570312 13.558594 14.742188 L 13.558594 15.683594 C 13.558594 15.855469 13.421875 15.996094 13.25 15.996094 " fill-opacity="1" fill-rule="nonzero"/><path fill="#ffffff" d="M 15.902344 15.996094 C 15.730469 15.996094 15.589844 15.855469 15.589844 15.683594 L 15.589844 14.742188 C 15.589844 14.570312 15.730469 14.429688 15.902344 14.429688 C 16.074219 14.429688 16.214844 14.570312 16.214844 14.742188 L 16.214844 15.683594 C 16.214844 15.855469 16.074219 15.996094 15.902344 15.996094 " fill-opacity="1" fill-rule="nonzero"/><path fill="#ffffff" d="M 18.550781 15.996094 C 18.378906 15.996094 18.238281 15.855469 18.238281 15.683594 L 18.238281 14.742188 C 18.238281 14.570312 18.378906 14.429688 18.550781 14.429688 C 18.726562 14.429688 18.863281 14.570312 18.863281 14.742188 L 18.863281 15.683594 C 18.863281 15.855469 18.726562 15.996094 18.550781 15.996094 " fill-opacity="1" fill-rule="nonzero"/><path fill="#fbf0f0" d="M 21.207031 15.996094 C 21.03125 15.996094 20.894531 15.855469 20.894531 15.683594 L 20.894531 14.742188 C 20.894531 14.570312 21.03125 14.429688 21.207031 14.429688 C 21.378906 14.429688 21.519531 14.570312 21.519531 14.742188 L 21.519531 15.683594 C 21.519531 15.855469 21.378906 15.996094 21.207031 15.996094 " fill-opacity="1" fill-rule="nonzero"/><path fill="#fbf0f0" d="M 23.859375 15.996094 C 23.6875 15.996094 23.546875 15.855469 23.546875 15.683594 L 23.546875 14.742188 C 23.546875 14.570312 23.6875 14.429688 23.859375 14.429688 C 24.03125 14.429688 24.171875 14.570312 24.171875 14.742188 L 24.171875 15.683594 C 24.171875 15.855469 24.03125 15.996094 23.859375 15.996094 " fill-opacity="1" fill-rule="nonzero"/><path fill="#ffffff" d="M 13.25 18.203125 C 13.074219 18.203125 12.9375 18.066406 12.9375 17.890625 L 12.9375 16.953125 C 12.9375 16.78125 13.074219 16.640625 13.25 16.640625 C 13.421875 16.640625 13.558594 16.78125 13.558594 16.953125 L 13.558594 17.890625 C 13.558594 18.066406 13.421875 18.203125 13.25 18.203125 " fill-opacity="1" fill-rule="nonzero"/><path fill="#ffffff" d="M 15.902344 18.203125 C 15.730469 18.203125 15.589844 18.066406 15.589844 17.890625 L 15.589844 16.953125 C 15.589844 16.78125 15.730469 16.640625 15.902344 16.640625 C 16.074219 16.640625 16.214844 16.78125 16.214844 16.953125 L 16.214844 17.890625 C 16.214844 18.066406 16.074219 18.203125 15.902344 18.203125 " fill-opacity="1" fill-rule="nonzero"/><path fill="#ffffff" d="M 18.550781 18.203125 C 18.378906 18.203125 18.238281 18.066406 18.238281 17.890625 L 18.238281 16.953125 C 18.238281 16.78125 18.378906 16.640625 18.550781 16.640625 C 18.726562 16.640625 18.863281 16.78125 18.863281 16.953125 L 18.863281 17.890625 C 18.863281 18.066406 18.726562 18.203125 18.550781 18.203125 " fill-opacity="1" fill-rule="nonzero"/><path fill="#fbf0f0" d="M 21.207031 18.203125 C 21.03125 18.203125 20.894531 18.066406 20.894531 17.890625 L 20.894531 16.953125 C 20.894531 16.78125 21.03125 16.640625 21.207031 16.640625 C 21.378906 16.640625 21.519531 16.78125 21.519531 16.953125 L 21.519531 17.890625 C 21.519531 18.066406 21.378906 18.203125 21.207031 18.203125 " fill-opacity="1" fill-rule="nonzero"/><path fill="#fbf0f0" d="M 23.859375 18.203125 C 23.6875 18.203125 23.546875 18.066406 23.546875 17.890625 L 23.546875 16.953125 C 23.546875 16.78125 23.6875 16.640625 23.859375 16.640625 C 24.03125 16.640625 24.171875 16.78125 24.171875 16.953125 L 24.171875 17.890625 C 24.171875 18.066406 24.03125 18.203125 23.859375 18.203125 " fill-opacity="1" fill-rule="nonzero"/><path fill="#ffffff" d="M 13.25 20.414062 C 13.074219 20.414062 12.9375 20.273438 12.9375 20.101562 L 12.9375 19.164062 C 12.9375 18.992188 13.074219 18.851562 13.25 18.851562 C 13.421875 18.851562 13.558594 18.992188 13.558594 19.164062 L 13.558594 20.101562 C 13.558594 20.273438 13.421875 20.414062 13.25 20.414062 " fill-opacity="1" fill-rule="nonzero"/><path fill="#ffffff" d="M 15.902344 20.414062 C 15.730469 20.414062 15.589844 20.273438 15.589844 20.101562 L 15.589844 19.164062 C 15.589844 18.992188 15.730469 18.851562 15.902344 18.851562 C 16.074219 18.851562 16.214844 18.992188 16.214844 19.164062 L 16.214844 20.101562 C 16.214844 20.273438 16.074219 20.414062 15.902344 20.414062 " fill-opacity="1" fill-rule="nonzero"/><path fill="#ffffff" d="M 18.550781 20.414062 C 18.378906 20.414062 18.238281 20.273438 18.238281 20.101562 L 18.238281 19.164062 C 18.238281 18.992188 18.378906 18.851562 18.550781 18.851562 C 18.726562 18.851562 18.863281 18.992188 18.863281 19.164062 L 18.863281 20.101562 C 18.863281 20.273438 18.726562 20.414062 18.550781 20.414062 " fill-opacity="1" fill-rule="nonzero"/><path fill="#fbf0f0" d="M 21.207031 20.414062 C 21.03125 20.414062 20.894531 20.273438 20.894531 20.101562 L 20.894531 19.164062 C 20.894531 18.992188 21.03125 18.851562 21.207031 18.851562 C 21.378906 18.851562 21.519531 18.992188 21.519531 19.164062 L 21.519531 20.101562 C 21.519531 20.273438 21.378906 20.414062 21.207031 20.414062 " fill-opacity="1" fill-rule="nonzero"/><path fill="#fbf0f0" d="M 23.859375 20.414062 C 23.6875 20.414062 23.546875 20.273438 23.546875 20.101562 L 23.546875 19.164062 C 23.546875 18.992188 23.6875 18.851562 23.859375 18.851562 C 24.03125 18.851562 24.171875 18.992188 24.171875 19.164062 L 24.171875 20.101562 C 24.171875 20.273438 24.03125 20.414062 23.859375 20.414062 " fill-opacity="1" fill-rule="nonzero"/><path fill="#ffffff" d="M 13.25 22.625 C 13.074219 22.625 12.9375 22.484375 12.9375 22.3125 L 12.9375 21.371094 C 12.9375 21.199219 13.074219 21.0625 13.25 21.0625 C 13.421875 21.0625 13.558594 21.199219 13.558594 21.371094 L 13.558594 22.3125 C 13.558594 22.484375 13.421875 22.625 13.25 22.625 " fill-opacity="1" fill-rule="nonzero"/><path fill="#ffffff" d="M 15.902344 22.625 C 15.730469 22.625 15.589844 22.484375 15.589844 22.3125 L 15.589844 21.371094 C 15.589844 21.199219 15.730469 21.0625 15.902344 21.0625 C 16.074219 21.0625 16.214844 21.199219 16.214844 21.371094 L 16.214844 22.3125 C 16.214844 22.484375 16.074219 22.625 15.902344 22.625 " fill-opacity="1" fill-rule="nonzero"/><path fill="#ffffff" d="M 18.550781 22.625 C 18.378906 22.625 18.238281 22.484375 18.238281 22.3125 L 18.238281 21.371094 C 18.238281 21.199219 18.378906 21.0625 18.550781 21.0625 C 18.726562 21.0625 18.863281 21.199219 18.863281 21.371094 L 18.863281 22.3125 C 18.863281 22.484375 18.726562 22.625 18.550781 22.625 " fill-opacity="1" fill-rule="nonzero"/><path fill="#fbf0f0" d="M 21.207031 22.625 C 21.03125 22.625 20.894531 22.484375 20.894531 22.3125 L 20.894531 21.371094 C 20.894531 21.199219 21.03125 21.0625 21.207031 21.0625 C 21.378906 21.0625 21.519531 21.199219 21.519531 21.371094 L 21.519531 22.3125 C 21.519531 22.484375 21.378906 22.625 21.207031 22.625 " fill-opacity="1" fill-rule="nonzero"/><path fill="#fbf0f0" d="M 23.859375 22.625 C 23.6875 22.625 23.546875 22.484375 23.546875 22.3125 L 23.546875 21.371094 C 23.546875 21.199219 23.6875 21.0625 23.859375 21.0625 C 24.03125 21.0625 24.171875 21.199219 24.171875 21.371094 L 24.171875 22.3125 C 24.171875 22.484375 24.03125 22.625 23.859375 22.625 " fill-opacity="1" fill-rule="nonzero"/><path fill="#ffffff" d="M 13.25 24.832031 C 13.074219 24.832031 12.9375 24.695312 12.9375 24.523438 L 12.9375 23.582031 C 12.9375 23.410156 13.074219 23.269531 13.25 23.269531 C 13.421875 23.269531 13.558594 23.410156 13.558594 23.582031 L 13.558594 24.523438 C 13.558594 24.695312 13.421875 24.832031 13.25 24.832031 " fill-opacity="1" fill-rule="nonzero"/><path fill="#ffffff" d="M 15.902344 24.832031 C 15.730469 24.832031 15.589844 24.695312 15.589844 24.523438 L 15.589844 23.582031 C 15.589844 23.410156 15.730469 23.269531 15.902344 23.269531 C 16.074219 23.269531 16.214844 23.410156 16.214844 23.582031 L 16.214844 24.523438 C 16.214844 24.695312 16.074219 24.832031 15.902344 24.832031 " fill-opacity="1" fill-rule="nonzero"/><path fill="#ffffff" d="M 18.550781 24.832031 C 18.378906 24.832031 18.238281 24.695312 18.238281 24.523438 L 18.238281 23.582031 C 18.238281 23.410156 18.378906 23.269531 18.550781 23.269531 C 18.726562 23.269531 18.863281 23.410156 18.863281 23.582031 L 18.863281 24.523438 C 18.863281 24.695312 18.726562 24.832031 18.550781 24.832031 " fill-opacity="1" fill-rule="nonzero"/><path fill="#fbf0f0" d="M 21.207031 24.832031 C 21.03125 24.832031 20.894531 24.695312 20.894531 24.523438 L 20.894531 23.582031 C 20.894531 23.410156 21.03125 23.269531 21.207031 23.269531 C 21.378906 23.269531 21.519531 23.410156 21.519531 23.582031 L 21.519531 24.523438 C 21.519531 24.695312 21.378906 24.832031 21.207031 24.832031 " fill-opacity="1" fill-rule="nonzero"/><path fill="#fbf0f0" d="M 23.859375 24.832031 C 23.6875 24.832031 23.546875 24.695312 23.546875 24.523438 L 23.546875 23.582031 C 23.546875 23.410156 23.6875 23.269531 23.859375 23.269531 C 24.03125 23.269531 24.171875 23.410156 24.171875 23.582031 L 24.171875 24.523438 C 24.171875 24.695312 24.03125 24.832031 23.859375 24.832031 " fill-opacity="1" fill-rule="nonzero"/></svg>