<svg xmlns="http://www.w3.org/2000/svg" xmlns:xlink="http://www.w3.org/1999/xlink" width="50" zoomAndPan="magnify" viewBox="0 0 37.5 37.499999" height="50" preserveAspectRatio="xMidYMid meet" version="1.0"><path fill="#f44336" d="M 18.3125 19.253906 C 17.558594 18.039062 17.011719 17.03125 16.253906 15.132812 C 14.972656 11.929688 24.046875 9.03125 20.367188 3.464844 C 21.964844 7.308594 14.644531 9.6875 13.964844 12.890625 C 13.339844 15.835938 18.308594 19.253906 18.3125 19.253906 Z M 18.3125 19.253906 " fill-opacity="1" fill-rule="nonzero"/><path fill="#f44336" d="M 18.484375 13.492188 C 18.339844 15.394531 20.167969 16.40625 20.222656 17.796875 C 20.265625 18.925781 19.128906 19.867188 19.128906 19.867188 C 19.128906 19.867188 21.191406 19.460938 21.832031 17.738281 C 22.546875 15.824219 20.449219 14.511719 20.664062 12.980469 C 20.863281 11.515625 25.21875 8.792969 25.21875 8.792969 C 25.21875 8.792969 18.8125 9.214844 18.484375 13.492188 Z M 18.484375 13.492188 " fill-opacity="1" fill-rule="nonzero"/><path fill="#1565c0" d="M 24.683594 19.375 C 26.011719 19.078125 27.128906 19.921875 27.128906 20.894531 C 27.128906 23.085938 24.089844 25.15625 24.089844 25.15625 C 24.089844 25.15625 28.792969 24.597656 28.792969 20.996094 C 28.792969 18.617188 26.484375 18.023438 24.683594 19.375 Z M 24.683594 19.375 " fill-opacity="1" fill-rule="nonzero"/><path fill="#1565c0" d="M 22.453125 21.140625 C 22.453125 21.140625 23.917969 20.097656 24.308594 19.707031 C 20.710938 20.46875 12.496094 20.570312 12.496094 19.910156 C 12.496094 19.296875 15.144531 18.671875 15.144531 18.671875 C 15.144531 18.671875 9.269531 18.585938 9.269531 20.320312 C 9.269531 22.125 16.957031 22.253906 22.453125 21.140625 Z M 22.453125 21.140625 " fill-opacity="1" fill-rule="nonzero"/><path fill="#1565c0" d="M 21.550781 22.785156 C 18.144531 23.917969 11.867188 23.558594 13.726562 22.035156 C 12.824219 22.035156 11.480469 22.765625 11.480469 23.464844 C 11.480469 24.867188 18.265625 25.949219 23.289062 23.894531 Z M 21.550781 22.785156 " fill-opacity="1" fill-rule="nonzero"/><path fill="#1565c0" d="M 14.5625 25.179688 C 13.328125 25.179688 12.527344 25.976562 12.527344 26.558594 C 12.527344 28.363281 19.898438 28.546875 22.820312 26.710938 L 20.964844 25.476562 C 18.78125 26.4375 13.300781 26.570312 14.5625 25.179688 Z M 14.5625 25.179688 " fill-opacity="1" fill-rule="nonzero"/><path fill="#1565c0" d="M 27.855469 28.121094 C 27.855469 27.414062 27.058594 27.082031 26.773438 26.921875 C 28.457031 30.980469 9.910156 30.667969 9.910156 28.269531 C 9.910156 27.726562 11.277344 27.191406 12.539062 27.445312 L 11.464844 26.808594 C 8.953125 26.414062 7.242188 27.519531 7.242188 28.414062 C 7.242188 32.570312 27.855469 32.371094 27.855469 28.121094 Z M 27.855469 28.121094 " fill-opacity="1" fill-rule="nonzero"/><path fill="#1565c0" d="M 29.910156 29.613281 C 26.777344 32.707031 18.835938 33.832031 10.847656 31.921875 C 18.835938 35.324219 29.871094 33.40625 29.910156 29.613281 Z M 29.910156 29.613281 " fill-opacity="1" fill-rule="nonzero"/></svg>