<svg xmlns="http://www.w3.org/2000/svg" xmlns:xlink="http://www.w3.org/1999/xlink" width="50" zoomAndPan="magnify" viewBox="0 0 37.5 37.499999" height="50" preserveAspectRatio="xMidYMid meet" version="1.0"><defs><clipPath id="7d251bd77e"><path d="M 6.199219 6.199219 L 30.625 6.199219 L 30.625 30.625 L 6.199219 30.625 Z M 6.199219 6.199219 " clip-rule="nonzero"/></clipPath><clipPath id="6527ed0d24"><path d="M 6.199219 6.199219 L 19 6.199219 L 19 30.625 L 6.199219 30.625 Z M 6.199219 6.199219 " clip-rule="nonzero"/></clipPath></defs><g clip-path="url(#7d251bd77e)"><path fill="#ffc44d" d="M 7.109375 6.140625 C 6.863281 6.140625 6.632812 6.246094 6.46875 6.429688 C 6.308594 6.613281 6.230469 6.859375 6.261719 7.101562 L 8.535156 25.277344 C 8.570312 25.558594 8.746094 25.804688 9 25.933594 L 18.085938 30.476562 C 18.328125 30.597656 18.609375 30.597656 18.847656 30.476562 L 27.9375 25.933594 C 28.191406 25.804688 28.367188 25.558594 28.402344 25.277344 L 30.671875 7.101562 C 30.703125 6.859375 30.628906 6.613281 30.46875 6.429688 C 30.304688 6.246094 30.074219 6.140625 29.828125 6.140625 Z M 7.109375 6.140625 " fill-opacity="1" fill-rule="nonzero"/></g><g clip-path="url(#6527ed0d24)"><path fill="#e5b045" d="M 18.46875 6.140625 L 18.46875 30.566406 C 18.335938 30.566406 18.207031 30.535156 18.085938 30.476562 L 9 25.933594 C 8.746094 25.804688 8.570312 25.558594 8.535156 25.277344 L 6.261719 7.101562 C 6.230469 6.859375 6.308594 6.613281 6.46875 6.429688 C 6.632812 6.246094 6.863281 6.140625 7.109375 6.140625 Z M 18.46875 6.140625 " fill-opacity="1" fill-rule="evenodd"/></g><path fill="#cfd8dc" d="M 16.765625 9.550781 C 17.234375 9.550781 17.617188 9.933594 17.617188 10.402344 L 17.617188 25.171875 C 17.617188 25.472656 17.453125 25.753906 17.191406 25.90625 C 16.929688 26.058594 16.605469 26.0625 16.339844 25.910156 L 12.367188 23.636719 C 11.957031 23.40625 11.816406 22.882812 12.046875 22.476562 C 12.28125 22.066406 12.800781 21.925781 13.210938 22.160156 L 15.914062 23.703125 L 15.914062 10.402344 C 15.914062 9.933594 16.292969 9.550781 16.765625 9.550781 Z M 16.765625 9.550781 " fill-opacity="1" fill-rule="evenodd"/><path fill="#eceff1" d="M 19.320312 10.402344 C 19.320312 9.933594 19.703125 9.550781 20.171875 9.550781 L 25.851562 9.550781 C 26.324219 9.550781 26.703125 9.933594 26.703125 10.402344 C 26.703125 10.871094 26.324219 11.253906 25.851562 11.253906 L 21.023438 11.253906 L 21.023438 16.722656 L 25.101562 15.820312 C 25.363281 15.761719 25.644531 15.832031 25.847656 16.011719 C 26.050781 16.191406 26.15625 16.457031 26.132812 16.726562 L 25.566406 22.976562 C 25.539062 23.269531 25.363281 23.527344 25.097656 23.660156 L 20.554688 25.933594 C 20.132812 26.144531 19.621094 25.972656 19.410156 25.550781 C 19.199219 25.128906 19.371094 24.617188 19.792969 24.410156 L 23.910156 22.347656 L 24.332031 17.734375 L 20.355469 18.617188 C 20.105469 18.675781 19.839844 18.613281 19.640625 18.449219 C 19.4375 18.289062 19.320312 18.046875 19.320312 17.785156 Z M 19.320312 10.402344 " fill-opacity="1" fill-rule="evenodd"/></svg>