<svg xmlns="http://www.w3.org/2000/svg" xmlns:xlink="http://www.w3.org/1999/xlink" width="50" zoomAndPan="magnify" viewBox="0 0 37.5 37.499999" height="50" preserveAspectRatio="xMidYMid meet" version="1.0"><defs><clipPath id="2b9ff0789c"><path d="M 5.820312 5.488281 L 30.984375 5.488281 L 30.984375 29 L 5.820312 29 Z M 5.820312 5.488281 " clip-rule="nonzero"/></clipPath></defs><g clip-path="url(#2b9ff0789c)"><path fill="#00d8ff" d="M 26.5 13.332031 C 26.238281 13.242188 25.96875 13.15625 25.6875 13.074219 C 25.734375 12.882812 25.777344 12.695312 25.816406 12.511719 C 26.425781 9.492188 26.027344 7.058594 24.660156 6.257812 C 23.347656 5.488281 21.203125 6.289062 19.039062 8.203125 C 18.828125 8.390625 18.621094 8.582031 18.414062 8.789062 C 18.273438 8.652344 18.136719 8.523438 17.996094 8.398438 C 15.726562 6.347656 13.453125 5.488281 12.085938 6.289062 C 10.777344 7.058594 10.386719 9.347656 10.941406 12.210938 C 10.992188 12.488281 11.054688 12.769531 11.125 13.058594 C 10.804688 13.152344 10.492188 13.25 10.195312 13.355469 C 7.535156 14.296875 5.835938 15.773438 5.835938 17.308594 C 5.835938 18.890625 7.660156 20.476562 10.429688 21.441406 C 10.648438 21.515625 10.875 21.589844 11.109375 21.65625 C 11.035156 21.964844 10.96875 22.269531 10.914062 22.566406 C 10.386719 25.382812 10.796875 27.617188 12.105469 28.378906 C 13.453125 29.171875 15.71875 28.359375 17.921875 26.398438 C 18.097656 26.246094 18.273438 26.082031 18.445312 25.910156 C 18.675781 26.132812 18.902344 26.339844 19.125 26.539062 C 21.261719 28.40625 23.371094 29.160156 24.675781 28.394531 C 26.023438 27.601562 26.464844 25.199219 25.894531 22.28125 C 25.851562 22.058594 25.800781 21.828125 25.746094 21.597656 C 25.902344 21.550781 26.058594 21.5 26.210938 21.449219 C 29.09375 20.480469 30.964844 18.910156 30.964844 17.308594 C 30.964844 15.769531 29.210938 14.28125 26.5 13.332031 Z M 25.875 20.414062 C 25.734375 20.460938 25.59375 20.503906 25.453125 20.546875 C 25.132812 19.527344 24.703125 18.4375 24.179688 17.3125 C 24.679688 16.214844 25.09375 15.140625 25.402344 14.125 C 25.660156 14.199219 25.90625 14.28125 26.148438 14.363281 C 28.472656 15.175781 29.894531 16.382812 29.894531 17.308594 C 29.894531 18.292969 28.363281 19.578125 25.875 20.414062 Z M 24.839844 22.492188 C 25.09375 23.785156 25.128906 24.949219 24.960938 25.863281 C 24.8125 26.683594 24.511719 27.230469 24.140625 27.449219 C 23.347656 27.914062 21.652344 27.308594 19.828125 25.710938 C 19.617188 25.527344 19.40625 25.332031 19.195312 25.125 C 19.902344 24.339844 20.609375 23.425781 21.300781 22.40625 C 22.515625 22.300781 23.664062 22.121094 24.707031 21.875 C 24.757812 22.085938 24.800781 22.289062 24.839844 22.492188 Z M 14.402344 27.367188 C 13.628906 27.644531 13.011719 27.65625 12.640625 27.4375 C 11.847656 26.972656 11.519531 25.175781 11.96875 22.773438 C 12.019531 22.496094 12.082031 22.214844 12.152344 21.925781 C 13.179688 22.15625 14.320312 22.320312 15.539062 22.421875 C 16.234375 23.417969 16.960938 24.332031 17.695312 25.128906 C 17.535156 25.289062 17.375 25.4375 17.214844 25.578125 C 16.242188 26.445312 15.265625 27.058594 14.402344 27.367188 Z M 10.777344 20.410156 C 9.554688 19.980469 8.539062 19.429688 7.847656 18.824219 C 7.222656 18.285156 6.910156 17.746094 6.910156 17.308594 C 6.910156 16.378906 8.273438 15.191406 10.550781 14.386719 C 10.824219 14.289062 11.113281 14.195312 11.414062 14.109375 C 11.730469 15.148438 12.140625 16.234375 12.640625 17.332031 C 12.132812 18.449219 11.714844 19.554688 11.398438 20.605469 C 11.183594 20.542969 10.976562 20.476562 10.777344 20.410156 Z M 11.992188 12.003906 C 11.519531 9.550781 11.835938 7.699219 12.625 7.234375 C 13.464844 6.738281 15.324219 7.445312 17.285156 9.214844 C 17.410156 9.324219 17.535156 9.445312 17.660156 9.566406 C 16.929688 10.363281 16.210938 11.269531 15.519531 12.257812 C 14.339844 12.371094 13.207031 12.550781 12.167969 12.789062 C 12.101562 12.519531 12.042969 12.257812 11.992188 12.003906 Z M 22.832031 14.722656 C 22.585938 14.285156 22.328125 13.859375 22.070312 13.445312 C 22.871094 13.546875 23.640625 13.683594 24.359375 13.851562 C 24.144531 14.558594 23.875 15.296875 23.558594 16.050781 C 23.328125 15.613281 23.085938 15.167969 22.832031 14.722656 Z M 18.414062 10.347656 C 18.910156 10.890625 19.40625 11.5 19.890625 12.160156 C 19.402344 12.136719 18.902344 12.125 18.402344 12.125 C 17.90625 12.125 17.410156 12.136719 16.921875 12.160156 C 17.410156 11.507812 17.910156 10.898438 18.414062 10.347656 Z M 13.964844 14.730469 C 13.714844 15.167969 13.480469 15.609375 13.253906 16.050781 C 12.941406 15.296875 12.675781 14.554688 12.457031 13.839844 C 13.171875 13.675781 13.9375 13.542969 14.734375 13.441406 C 14.46875 13.863281 14.214844 14.289062 13.964844 14.730469 Z M 14.757812 21.25 C 13.933594 21.15625 13.15625 21.03125 12.441406 20.871094 C 12.664062 20.144531 12.9375 19.386719 13.253906 18.617188 C 13.480469 19.058594 13.71875 19.5 13.96875 19.9375 C 14.222656 20.386719 14.488281 20.824219 14.757812 21.25 Z M 18.441406 24.34375 C 17.933594 23.789062 17.425781 23.167969 16.929688 22.507812 C 17.410156 22.527344 17.902344 22.535156 18.402344 22.535156 C 18.914062 22.535156 19.421875 22.523438 19.917969 22.5 C 19.429688 23.175781 18.933594 23.796875 18.441406 24.34375 Z M 23.566406 18.578125 C 23.902344 19.355469 24.1875 20.109375 24.410156 20.824219 C 23.683594 20.992188 22.894531 21.128906 22.066406 21.230469 C 22.328125 20.808594 22.585938 20.375 22.839844 19.929688 C 23.09375 19.480469 23.335938 19.027344 23.566406 18.578125 Z M 21.90625 19.386719 C 21.515625 20.078125 21.113281 20.738281 20.703125 21.363281 C 19.957031 21.417969 19.1875 21.445312 18.402344 21.445312 C 17.617188 21.445312 16.859375 21.421875 16.125 21.371094 C 15.699219 20.738281 15.289062 20.078125 14.898438 19.390625 C 14.507812 18.707031 14.148438 18.019531 13.824219 17.332031 C 14.148438 16.648438 14.507812 15.957031 14.894531 15.273438 C 15.28125 14.589844 15.691406 13.929688 16.113281 13.304688 C 16.859375 13.246094 17.625 13.214844 18.402344 13.214844 C 19.179688 13.214844 19.945312 13.246094 20.695312 13.304688 C 21.109375 13.925781 21.515625 14.585938 21.90625 15.269531 C 22.296875 15.960938 22.660156 16.644531 22.988281 17.320312 C 22.660156 18.003906 22.300781 18.695312 21.90625 19.386719 Z M 24.121094 7.203125 C 24.964844 7.695312 25.292969 9.683594 24.761719 12.292969 C 24.730469 12.457031 24.691406 12.628906 24.648438 12.800781 C 23.605469 12.554688 22.476562 12.375 21.289062 12.261719 C 20.597656 11.261719 19.882812 10.351562 19.164062 9.566406 C 19.359375 9.378906 19.550781 9.195312 19.742188 9.027344 C 21.597656 7.386719 23.332031 6.738281 24.121094 7.203125 Z M 18.402344 15.027344 C 19.640625 15.027344 20.644531 16.046875 20.644531 17.308594 C 20.644531 18.566406 19.640625 19.589844 18.402344 19.589844 C 17.164062 19.589844 16.15625 18.566406 16.15625 17.308594 C 16.15625 16.046875 17.164062 15.027344 18.402344 15.027344 Z M 18.402344 15.027344 " fill-opacity="1" fill-rule="nonzero"/></g></svg>